<svg width="28" height="28" viewBox="0 0 28 28" fill="none" xmlns="http://www.w3.org/2000/svg">
<path d="M9.33333 9.33333V6.41667M9.33333 9.33333V12.25M9.33333 9.33333H6.41667M9.33333 9.33333H12.25M21.5833 9.33333H15.75M21.5833 17.5H15.75M21.5833 19.8333H15.75M9.33333 18.7081L11.3957 16.6457M9.33333 18.7081L7.27094 20.7705M9.33333 18.7081L7.27094 16.6457M9.33333 18.7081L11.3957 20.7705M5.83333 3.5H22.1667C23.4553 3.5 24.5 4.54467 24.5 5.83333V22.1667C24.5 23.4553 23.4553 24.5 22.1667 24.5H5.83333C4.54467 24.5 3.5 23.4553 3.5 22.1667V5.83333C3.5 4.54467 4.54467 3.5 5.83333 3.5Z" stroke="white" stroke-width="1.4" stroke-linecap="round" stroke-linejoin="round"/>
</svg>
