<svg width="22" height="22" fill="none" xmlns="http://www.w3.org/2000/svg"><path d="M7.333 7.333V5.042m0 2.291v2.292m0-2.292H5.042m2.291 0h2.292m7.333 0h-4.583m4.583 6.417h-4.583m4.583 1.833h-4.583M7.333 14.7l1.62-1.62m-1.62 1.62l-1.62 1.62m1.62-1.62l-1.62-1.62m1.62 1.62l1.62 1.62M4.584 2.75h12.833c1.013 0 1.834.82 1.834 1.833v12.834c0 1.012-.82 1.833-1.834 1.833H4.583a1.833 1.833 0 01-1.833-1.833V4.583c0-1.012.82-1.833 1.833-1.833z" stroke="#03A678" stroke-width="1.1" stroke-linecap="round" stroke-linejoin="round"/></svg>