<svg width="123" height="127" viewBox="0 0 123 127" fill="none" xmlns="http://www.w3.org/2000/svg">
<g id="logo 6" opacity="0.7" clip-path="url(#clip0_54_99)">
<g id="figure">
<path id="Vector" d="M71.2703 74.6432C71.1426 72.6846 69.9319 71.2025 68.3004 70.3322C68.6211 68.9155 69.0873 67.7894 69.7014 67.1852H67.2628C66.7541 67.9297 66.3219 68.7238 65.9719 69.5548C64.3369 69.2612 62.6509 69.5534 61.2098 70.38V68.3939H59.6734V70.38C58.2291 69.5422 56.5334 69.2469 54.8911 69.5475C54.5373 68.7083 54.1015 67.906 53.5902 67.1523H51.1317C51.7505 67.7618 52.2217 68.9078 52.5427 70.3398C50.9284 71.2151 49.733 72.6946 49.6027 74.6432C49.3845 77.3041 50.7706 79.0971 52.7383 79.9873C52.2595 83.2352 51.2192 85.9838 49.595 86.6782L53.302 86.6205C53.7358 85.1888 54.0163 82.9091 54.1768 80.4565C55.1069 80.6525 56.0637 80.6906 57.0064 80.5693C57.7584 83.7817 58.6684 86.9291 60.4428 89.6401C62.2198 86.9317 63.1397 83.7893 63.8841 80.5819C64.8274 80.7009 65.7839 80.6601 66.7137 80.4615C66.8742 82.9114 67.16 85.1911 67.5911 86.6205L71.2404 86.7108C69.6238 86.0236 68.5836 83.2651 68.1024 80.0049C70.0848 79.1223 71.4808 77.3217 71.2703 74.6432ZM61.1872 71.8346C62.4204 70.8553 63.9913 70.4043 65.5558 70.5807C64.5533 73.2841 63.8941 76.4939 63.2073 79.4959C62.4401 79.2817 61.7431 78.8683 61.1872 78.2972V71.8346ZM59.6658 71.8346V78.2946C59.1126 78.8698 58.4162 79.287 57.648 79.5036C56.9589 76.4939 56.3123 73.2891 55.3022 70.5831C56.8646 70.4087 58.4329 70.8582 59.6658 71.8346ZM51.2192 76.5868C50.6804 74.4126 51.4298 72.6471 52.7807 71.5963C53.1114 74.0073 53.1465 76.4494 52.8859 78.8689C52.0536 78.3555 51.4553 77.5362 51.2192 76.5868ZM54.2395 79.5036C54.4023 76.6188 54.3838 73.7263 54.1844 70.8439C54.2819 70.809 54.3824 70.7762 54.4852 70.7486C55.5477 73.5499 56.1293 76.6346 56.8084 79.689C55.9486 79.8101 55.0729 79.7468 54.2395 79.5036ZM59.6658 79.7819C59.6658 79.7819 59.6658 82.8364 59.1644 84.9304C58.6344 83.4547 58.1983 81.9471 57.8586 80.4163C58.4841 80.2742 59.0906 80.0585 59.6658 79.7743V79.7819ZM60.4179 87.4433C60.123 87.007 59.8632 86.5484 59.6406 86.0714H61.1972C60.9761 86.5461 60.7172 87.0023 60.4229 87.4357L60.4179 87.4433ZM61.671 84.9781C61.1219 82.8915 61.1846 79.7819 61.1846 79.7819C61.7603 80.0679 62.3677 80.2853 62.9944 80.4289C62.6474 81.9699 62.2014 83.4869 61.6584 84.9705L61.671 84.9781ZM64.097 79.6914C64.7788 76.6396 65.3502 73.5599 66.4179 70.7612C66.5207 70.7914 66.6212 70.8213 66.7213 70.8591C66.5207 73.7313 66.5023 76.6138 66.6663 79.4883C65.8313 79.7333 64.9542 79.8001 64.0921 79.6841L64.097 79.6914ZM67.9645 78.8964C67.7012 76.4678 67.7373 74.0161 68.0723 71.5963C69.4308 72.6471 70.1876 74.4126 69.6487 76.5944C69.4106 77.5526 68.8036 78.3775 67.9595 78.8891L67.9645 78.8964Z" fill="#2A3143"/>
<path id="Vector_2" d="M14.9381 72.0428C20.407 72.0428 24.3747 71.3228 29.6606 69.4923C29.7868 69.4469 29.9227 69.4355 30.0548 69.4592C30.1868 69.483 30.3101 69.541 30.4126 69.6277C30.1895 69.7956 24.6804 73.9861 9.27364 76.2433C12.5997 79.4082 16.1061 80.0851 18.4997 80.0851C19.5122 80.0854 20.5213 79.9694 21.5074 79.7391C25.2945 78.6985 29.8237 76.3309 34.5683 72.8551C34.7056 72.754 34.8673 72.6913 35.0368 72.6731C35.2064 72.6552 35.3777 72.6825 35.5332 72.7525C35.4205 72.9456 32.6682 77.4822 19.4221 84.1705C21.1105 85.0217 22.9727 85.4715 24.8634 85.4847C26.6157 85.4955 28.3416 85.0568 29.8761 84.2106C33.7035 81.9936 35.9391 79.8545 39.5058 74.6434C39.5922 74.5136 39.717 74.4142 39.8623 74.3586C40.0078 74.3026 40.1671 74.2935 40.3179 74.3322C40.2851 74.4327 40.2553 74.5429 40.2125 74.6557C39.3503 76.8651 37.8893 81.176 29.4901 88.6317C30.5163 89.0847 31.6271 89.3133 32.7485 89.3016C34.4046 89.2781 36.0302 88.853 37.4857 88.0627C39.4107 87.1045 40.7162 85.487 41.7239 82.8237C41.9902 82.0765 42.5404 81.4644 43.2553 81.121C43.6354 80.941 44.0504 80.8479 44.4709 80.8476C45.2564 80.8613 46.0079 81.1702 46.5763 81.7129C46.5912 81.7258 46.6094 81.7343 46.629 81.7372C46.6486 81.7401 46.6685 81.7372 46.6867 81.729C46.7046 81.7208 46.7198 81.7076 46.7306 81.6909C46.7412 81.6742 46.7467 81.6549 46.7467 81.6349V63.8622C46.7462 63.8417 46.7394 63.8215 46.7274 63.8048C46.7154 63.7878 46.699 63.7749 46.6797 63.7675C46.6603 63.7599 46.6396 63.7585 46.6193 63.7626C46.5991 63.7669 46.5807 63.7772 46.5663 63.7919C44.8317 65.62 43.0096 66.0188 41.7515 66.0188C38.9544 66.0188 36.215 64.0125 35.3727 61.3442C35.3578 61.2918 33.9515 55.9878 38.7488 53.4496H38.7614H38.7763C38.7763 53.4496 39.2124 53.2691 39.2426 52.9731C39.2601 52.8026 39.1573 52.434 38.2826 51.8649C38.2351 51.8371 33.4879 48.9983 27.5729 43.2805C22.1816 38.0542 14.6975 29.3244 9.46916 17.2068C8.36634 19.1654 4.16062 27.7095 9.39398 35.9927C12.4944 40.8027 16.8254 45.0211 23.0012 49.2415C23.1241 49.3247 23.2213 49.4408 23.2816 49.5764C23.3418 49.7121 23.3628 49.8621 23.342 50.0089C23.2518 49.984 14.2338 47.3231 2.32593 34.7966C1.96752 36.7376 1.03765 44.4418 7.30614 49.8636C12.8353 54.2522 16.7277 55.4536 22.9034 56.8853C23.0825 56.9266 23.2452 57.0201 23.3711 57.1543C23.4969 57.2882 23.5802 57.4564 23.6102 57.6378C23.393 57.6606 23.1743 57.6665 22.956 57.6554C19.971 57.6554 11.8076 56.8428 0 49.3795C0.117801 51.3357 1.00256 58.9092 7.69462 61.5499C10.4517 62.7211 14.5145 64.0579 21.4422 64.0579C22.6954 64.0579 23.8734 64.0228 25.2018 63.9375C25.3651 63.9272 25.5281 63.9639 25.6714 64.043C25.8148 64.1218 25.9327 64.2402 26.0114 64.3838C25.8735 64.4564 22.5576 65.9611 15.9657 65.9611C11.6898 65.9611 7.04547 65.3118 2.1555 64.0251C4.70701 69.3517 8.26358 71.8972 13.309 72.0252C13.867 72.0369 14.4101 72.0428 14.9381 72.0428Z" fill="#2A3143"/>
<path id="Vector_3" d="M74.5469 38.5485C77.4245 36.1809 84.2068 33.8387 88.0441 34.5534C88.1744 34.5786 90.5653 26.3127 74.7601 26.3127C74.7601 26.3127 68.4039 26.3754 65.0603 25.7886C66.4789 27.1679 69.7373 30.4856 67.0931 34.6287C61.8571 41.3395 60.6865 46.9169 60.4335 53.071C60.1828 46.9119 59.0099 41.3395 53.7739 34.6287C51.1323 30.4856 54.388 27.1679 55.8066 25.7886C52.4657 26.3754 46.1069 26.3127 46.1069 26.3127C30.3166 26.3127 32.7002 34.5886 32.8229 34.5534C36.6602 33.8387 43.4402 36.1809 46.3201 38.5485C52.2051 43.3432 53.5308 52.2535 48.3001 60.4089C48.2875 60.4288 48.2808 60.4517 48.2799 60.4754C48.2793 60.4988 48.2849 60.522 48.296 60.5425C48.3072 60.5633 48.3238 60.5806 48.3438 60.5929C48.364 60.6049 48.3868 60.6117 48.4102 60.612H72.4441C72.4679 60.612 72.4907 60.6055 72.5109 60.5932C72.5311 60.5812 72.5478 60.5636 72.5589 60.5428C72.5698 60.522 72.5751 60.4986 72.5739 60.4748C72.5727 60.4514 72.5651 60.4285 72.5519 60.4089C67.3335 52.2535 68.6596 43.3432 74.5469 38.5485Z" fill="#2A3143"/>
<path id="Vector_4" d="M94.8677 64.3787C94.9462 64.2354 95.0636 64.117 95.2065 64.0382C95.3494 63.9591 95.512 63.9224 95.6748 63.9324C97.0082 64.0177 98.1814 64.0525 99.4345 64.0525C106.362 64.0525 110.42 62.7061 113.182 61.5448C119.872 58.8915 120.759 51.3306 120.877 49.3744C109.067 56.8377 100.903 57.6503 97.9204 57.6503C97.7017 57.6611 97.482 57.6552 97.2638 57.6327C97.2949 57.4516 97.3783 57.284 97.5043 57.1501C97.6299 57.0162 97.7922 56.9224 97.9708 56.8802C104.147 55.4585 108.039 54.2571 113.57 49.8585C119.836 44.4367 118.907 36.7325 118.551 34.7915C106.643 47.3306 97.6223 49.9789 97.5347 50.0038C97.5139 49.8567 97.5347 49.707 97.5951 49.5713C97.6554 49.4356 97.7526 49.3196 97.8753 49.2364C104.051 45.0157 108.382 40.7976 111.483 35.9876C116.716 27.7119 112.51 19.1603 111.407 17.2017C106.177 29.3193 98.6924 38.0491 93.3038 43.2628C87.3861 48.9806 82.6391 51.8194 82.594 51.8472C81.7193 52.4163 81.6165 52.7849 81.6314 52.9555C81.6616 53.2514 82.1003 53.4322 82.1003 53.4322H82.1129H82.1278C86.9251 55.9701 85.5188 61.2741 85.5039 61.3265C84.6616 63.9951 81.9199 66.0011 79.1251 66.0011C77.872 66.0011 76.0422 65.6026 74.3079 63.7742C74.2939 63.7592 74.2754 63.7487 74.2552 63.744C74.2353 63.7396 74.2142 63.741 74.1949 63.7487C74.1759 63.7563 74.1592 63.7695 74.1477 63.7865C74.136 63.8038 74.1299 63.824 74.1299 63.8445V81.6348C74.1299 81.6547 74.1354 81.6741 74.146 81.6908C74.1568 81.7075 74.1721 81.7207 74.1899 81.7289C74.2081 81.7371 74.228 81.74 74.2476 81.7371C74.2672 81.7341 74.2854 81.7256 74.3003 81.7128C74.8676 81.1701 75.6185 80.8612 76.403 80.8475C76.8236 80.8472 77.2389 80.9406 77.6187 81.1208C78.3347 81.4637 78.8859 82.0758 79.1527 82.8236C80.1551 85.4869 81.466 87.1044 83.3909 88.0626C84.8464 88.8531 86.4721 89.2783 88.1282 89.3015C89.2445 89.3114 90.3501 89.0832 91.3713 88.6316C82.975 81.1862 81.5137 76.865 80.6515 74.6556C80.6091 74.5428 80.5789 74.4326 80.5464 74.3321C80.6966 74.294 80.8553 74.3034 81.0003 74.359C81.1453 74.4147 81.2694 74.514 81.3558 74.6433C84.9249 79.8544 87.1582 81.9935 90.9879 84.2105C92.5225 85.057 94.2483 85.4957 96.0008 85.4846C97.8906 85.4711 99.7517 85.0213 101.44 84.1703C88.1932 77.4821 85.4412 72.9455 85.3284 72.7524C85.4842 72.6821 85.6562 72.6548 85.826 72.6727C85.9962 72.6909 86.1581 72.7539 86.296 72.8549C91.0406 76.3308 95.5697 78.6984 99.3543 79.7389C100.34 79.969 101.349 80.085 102.362 80.085C104.753 80.085 108.259 79.4081 111.585 76.2432C96.1811 73.986 90.6696 69.7955 90.459 69.6276C90.5609 69.5397 90.6842 69.4811 90.8166 69.4571C90.9487 69.4333 91.0848 69.4453 91.2111 69.4922C96.4945 71.3227 100.464 72.0427 105.931 72.0427C106.46 72.0427 107.001 72.0427 107.563 72.0275C112.608 71.8997 116.165 69.3542 118.716 64.0276C113.824 65.314 109.192 65.9636 104.903 65.9636C98.3117 65.961 95.0056 64.4563 94.8677 64.3787Z" fill="#2A3143"/>
<path id="Vector_5" d="M60.4584 4.56483H60.476C60.9232 4.55833 61.3587 4.42028 61.728 4.16787C62.0976 3.91546 62.3843 3.55985 62.553 3.1454C62.7216 2.73093 62.765 2.27595 62.6768 1.83717C62.589 1.39838 62.3737 0.995208 62.0583 0.677905C61.7429 0.360605 61.3411 0.143213 60.9033 0.0528324C60.4652 -0.0375477 60.0101 0.00308203 59.5951 0.169656C59.1798 0.336231 58.8228 0.621381 58.5686 0.989556C58.3144 1.35773 58.1742 1.79265 58.1651 2.24009C58.1633 2.5434 58.221 2.84414 58.3352 3.12512C58.4494 3.4061 58.6178 3.66182 58.8307 3.87772C59.0437 4.09359 59.297 4.26536 59.5764 4.38328C59.8557 4.50116 60.1553 4.56287 60.4584 4.56483Z" fill="#2A3143"/>
<path id="Vector_6" d="M93.6153 99.0261C93.6153 98.5752 93.4814 98.1345 93.2313 97.7597C92.9809 97.3849 92.6251 97.0925 92.2087 96.9202C91.7925 96.7476 91.3345 96.7024 90.8923 96.7904C90.4504 96.8783 90.0445 97.0954 89.7258 97.4142C89.4072 97.733 89.1902 98.1391 89.1023 98.5813C89.0145 99.0235 89.0596 99.4821 89.2321 99.8985C89.4046 100.315 89.6965 100.671 90.0711 100.922C90.4457 101.172 90.8864 101.306 91.3368 101.306C91.941 101.305 92.52 101.065 92.9473 100.637C93.3742 100.21 93.6147 99.6306 93.6153 99.0261Z" fill="#2A3143"/>
<path id="Vector_7" d="M95.4211 100.957C95.0559 101.736 94.4763 102.395 93.7506 102.857C93.0249 103.318 92.1829 103.563 91.3231 103.563C90.4633 103.563 89.621 103.318 88.8953 102.857C88.1696 102.395 87.5904 101.736 87.2252 100.957C87.2076 100.921 87.1815 100.889 87.149 100.865C87.1168 100.841 87.079 100.825 87.0392 100.819C86.9991 100.812 86.9584 100.816 86.92 100.829C86.8816 100.841 86.8471 100.863 86.819 100.892C86.0379 101.67 85.4721 102.638 85.1769 103.7C84.8814 104.763 84.8671 105.884 85.1348 106.954C84.2357 106.687 83.3618 106.342 82.523 105.923C79.3701 104.418 80.5706 101.321 81.4931 99.0592C81.7795 98.3774 81.9602 97.6562 82.0293 96.9199C82.5933 90.4725 77.3298 88.441 74.7609 87.8441C74.7044 87.8312 74.6455 87.8321 74.5893 87.8461C74.533 87.8605 74.4809 87.8877 74.4373 87.9258C74.3933 87.9639 74.3594 88.0117 74.3377 88.0656C74.3157 88.1195 74.3072 88.1775 74.3122 88.2353C75.2069 98.9863 62.1762 87.8918 60.4416 97.9381C58.71 87.8945 45.6816 98.9863 46.5713 88.2379C46.5763 88.1799 46.5675 88.1213 46.5456 88.0671C46.5239 88.0131 46.4896 87.9648 46.4457 87.9264C46.4018 87.8883 46.3493 87.8608 46.2928 87.8464C46.2363 87.8321 46.1771 87.8315 46.1203 87.8441C43.5461 88.441 38.2852 90.4748 38.8516 96.9199C38.9231 97.6557 39.1038 98.3768 39.3881 99.0592C40.313 101.316 41.5134 104.416 38.3605 105.923C32.6132 108.667 33.5582 106.031 29.2071 106.113C29.1394 106.113 28.9213 106.134 28.7709 106.159C28.6326 106.167 28.4941 106.145 28.3645 106.096C28.2349 106.047 28.1172 105.971 28.019 105.873L17.8782 95.804C17.9193 95.6315 17.9404 95.4548 17.9408 95.2772C17.941 94.8013 17.7975 94.3366 17.5291 93.9436C17.2608 93.551 16.8801 93.2483 16.437 93.0754C16.7863 92.2526 16.8821 91.3442 16.7119 90.4666C16.5418 89.5893 16.1135 88.7826 15.482 88.15L13.7526 89.8779C13.2654 89.509 12.662 89.3277 12.0522 89.3666C11.4425 89.4053 10.867 89.6623 10.4306 90.0901C9.99414 90.5179 9.72585 91.0884 9.67451 91.6976C9.6232 92.3068 9.79227 92.914 10.151 93.4089L8.39648 95.1644C9.03365 95.7999 9.84689 96.2295 10.7308 96.3971C11.6148 96.5647 12.5287 96.4631 13.3541 96.105C13.5208 96.558 13.8223 96.9492 14.2181 97.2252C14.6138 97.5015 15.0847 97.6498 15.5673 97.6498C15.7452 97.6489 15.9226 97.6287 16.0961 97.5894L26.3473 107.779C26.4235 107.855 26.477 107.95 26.5018 108.055C26.5266 108.159 26.5217 108.269 26.4876 108.371C26.4876 108.408 26.4676 108.438 26.4601 108.461C26.23 109.31 26.3231 110.214 26.7213 110.998C27.1196 111.782 27.7946 112.39 28.6155 112.704C29.3493 113.005 30.1666 113.033 30.919 112.782L31.0619 112.737C31.1234 112.716 31.1899 112.713 31.2534 112.728C31.3167 112.743 31.3747 112.775 31.4204 112.822L33.0718 114.462C33.2015 114.591 33.3576 114.69 33.5295 114.752C33.7014 114.814 33.8845 114.838 34.0666 114.822C34.2485 114.805 34.4248 114.749 34.5826 114.658C34.7408 114.566 34.8769 114.441 34.9818 114.291C35.1388 114.037 35.2064 113.737 35.1742 113.44C35.142 113.142 35.0117 112.864 34.8037 112.649L33.345 111.199C33.2832 111.138 33.2449 111.057 33.2372 110.97C33.2293 110.884 33.2525 110.797 33.3026 110.725L33.4203 110.562C35.5658 107.892 41.3655 108.807 43.2679 107.623C43.4635 107.492 43.5994 107.29 43.6466 107.059C43.6934 106.829 43.6474 106.589 43.5186 106.392C42.2654 104.386 41.3078 98.3443 47.9724 97.1657C49.7269 96.96 55.3787 98.0735 55.697 101.996C55.7026 102.369 55.6666 102.742 55.5893 103.107C55.2636 104.436 53.6192 104.94 52.702 105.161C44.7468 107.122 39.343 114.821 45.5815 119.167C46.7467 113.507 49.7872 110.442 55.2059 107.989C55.3143 107.941 55.4355 107.931 55.5506 107.959C55.666 107.987 55.7685 108.052 55.8426 108.145C52.376 110.522 45.5662 117.747 53.4063 123.367C53.7121 119.056 54.8223 114.126 57.6495 110.936C57.7227 110.85 57.8261 110.795 57.9383 110.783C58.0504 110.77 58.1632 110.801 58.2537 110.868C57.4164 115.132 55.5243 122.67 60.2888 125.933C60.3289 125.963 60.3725 125.987 60.4191 126.006C60.4636 125.985 60.5063 125.961 60.5471 125.933C65.3092 122.673 63.4194 115.119 62.5848 110.868C62.675 110.801 62.788 110.77 62.9002 110.783C63.0123 110.795 63.1157 110.85 63.1886 110.936C66.0159 114.126 67.1264 119.056 67.4295 123.367C75.2596 117.747 68.4621 110.522 64.9958 108.145C65.0699 108.052 65.1724 107.987 65.2878 107.959C65.4029 107.931 65.5242 107.941 65.6325 107.989C71.0513 110.442 74.0917 113.507 75.257 119.167C81.4954 114.821 76.0916 107.129 68.1364 105.161C67.2189 104.94 65.5748 104.436 65.2489 103.107C65.1718 102.742 65.1358 102.369 65.1411 101.996H65.1689C65.4873 98.0735 71.1341 96.96 72.8936 97.1657C79.5579 98.3443 78.5879 104.396 77.3474 106.392C77.2821 106.492 77.2379 106.605 77.2168 106.723C77.1957 106.841 77.1983 106.962 77.2247 107.079C77.2513 107.196 77.3008 107.306 77.3705 107.403C77.4402 107.501 77.5287 107.583 77.6306 107.646C79.4328 108.727 84.5356 108.025 86.9519 110.063C88.1737 111.199 89.7918 111.81 91.4587 111.766C93.1257 111.722 94.7091 111.026 95.8697 109.828C97.03 108.63 97.6752 107.024 97.667 105.356C97.6585 103.688 96.9969 102.089 95.8246 100.902C95.7971 100.873 95.7634 100.851 95.7256 100.838C95.6882 100.825 95.648 100.821 95.6085 100.826C95.5693 100.832 95.5315 100.846 95.499 100.869C95.4665 100.892 95.4395 100.922 95.4211 100.957Z" fill="#2A3143"/>
<path id="Vector_8" d="M45.8287 14.1419C46.0764 14.1467 46.3204 14.0778 46.5292 13.9438C46.738 13.8099 46.9023 13.617 47.0016 13.3895C47.1234 13.132 47.158 12.8419 47.1006 12.5629C47.0432 12.2839 46.8967 12.0311 46.6832 11.8426C46.47 11.6541 46.2009 11.5401 45.9171 11.5177C45.6334 11.4954 45.3502 11.5659 45.1097 11.7187C44.8696 11.8715 44.6854 12.0983 44.5852 12.3649C44.4848 12.6315 44.4739 12.9235 44.5539 13.1969C44.6338 13.4703 44.8005 13.7103 45.0283 13.8807C45.2564 14.0511 45.5338 14.1428 45.8184 14.1419H45.8287Z" fill="#2A3143"/>
<path id="Vector_9" d="M20.2548 23.451C23.9718 23.2328 26.5559 23.9525 28.1249 26.8566C28.1457 26.8944 28.1759 26.9262 28.2125 26.9489C28.2492 26.9717 28.2911 26.9845 28.3342 26.9863C28.3773 26.9881 28.4201 26.9787 28.4585 26.959C28.4969 26.9394 28.5296 26.9101 28.5535 26.8742C30.6438 23.8472 30.5135 19.5237 28.2827 16.5921V16.557C28.1094 16.3019 27.9924 16.0128 27.9395 15.709C27.8865 15.4051 27.8989 15.0934 27.9757 14.7947C28.0525 14.496 28.1921 14.2171 28.385 13.9765C28.578 13.736 28.82 13.5394 29.0948 13.3997C32.1778 11.895 37.5614 9.23417 36.9499 12.0003C36.3408 14.6686 35.8394 18.2698 37.5939 20.5294C38.539 21.5777 39.4863 21.9714 40.9951 22.2673C41.6008 22.3829 42.2161 22.44 42.8322 22.4378H49.3489C49.5797 22.4395 49.8101 22.4236 50.0383 22.3902C52.4669 22.0291 54.061 21.0209 56.2592 17.7959C56.429 17.5411 56.6507 17.3251 56.9099 17.1622C57.1691 16.9993 57.4599 16.893 57.763 16.8504C58.6541 16.7646 59.5497 16.7303 60.4447 16.7476C61.3399 16.7303 62.2355 16.7646 63.1267 16.8504C63.4298 16.893 63.7206 16.9993 63.9797 17.1622C64.2389 17.3251 64.4606 17.5411 64.6305 17.7959C66.8287 21.0209 68.4227 22.0291 70.8513 22.3902C71.0795 22.4236 71.31 22.4395 71.5407 22.4378H78.0571C78.673 22.4401 79.2874 22.383 79.8918 22.2673C81.3957 21.9714 82.348 21.5777 83.2957 20.5294C85.03 18.2724 84.5489 14.6686 83.9271 11.9903C83.3156 9.23168 88.6893 11.8925 91.7798 13.3896C92.0571 13.5282 92.3014 13.7245 92.4964 13.9655C92.6912 14.2065 92.8323 14.4865 92.9099 14.7867C92.9878 15.0868 93.0001 15.4002 92.9465 15.7056C92.8929 16.0109 92.7746 16.3013 92.5992 16.557V16.6046C90.3662 19.5338 90.2359 23.8573 92.3286 26.8867C92.3526 26.9221 92.3851 26.9508 92.4232 26.9701C92.4616 26.9894 92.504 26.9986 92.5465 26.9968C92.5893 26.995 92.6308 26.9824 92.6672 26.96C92.7038 26.9377 92.7339 26.9064 92.7547 26.8691C94.3262 23.9626 96.9077 23.2453 100.625 23.4635C100.68 23.4669 100.735 23.4517 100.781 23.4205C100.827 23.3893 100.861 23.3437 100.878 23.291C100.895 23.2382 100.895 23.1812 100.876 23.1289C100.857 23.0766 100.822 23.032 100.775 23.0021C96.3665 20.1407 96.4667 19.3959 96.5595 17.7357C96.6398 16.8178 97.7775 14.5307 96.3088 14.0993C90.7946 12.5219 89.0152 11.8874 85.3334 8.09562C83.2128 6.11948 80.4984 6.9671 80.882 9.25676C80.9233 9.48904 80.9921 9.71552 81.0876 9.93136C81.3251 10.504 81.5972 11.0618 81.902 11.6016C81.9697 11.732 86.5816 20.9908 78.9169 21.6077H78.6987V20.9683C78.6967 20.8512 78.7175 20.7348 78.7605 20.6259C78.8036 20.517 78.8677 20.4177 78.9494 20.3338C79.3791 19.9265 79.7533 19.4644 80.0623 18.9595C80.4512 18.3442 80.614 17.6128 80.5235 16.8905C80.3581 15.5464 79.2953 14.5207 77.9771 14.1946L77.428 14.0717C77.3829 14.062 77.3364 14.0619 77.2913 14.0715C77.2462 14.081 77.2037 14.1001 77.1665 14.1274C77.1293 14.1546 77.0983 14.1895 77.0757 14.2296C77.0529 14.2697 77.0388 14.3142 77.0347 14.3602C76.912 15.514 76.6488 16.6485 76.2502 17.7382C76.0721 18.0968 75.8917 18.0968 75.5833 18.0968H74.6887C74.5542 18.1235 74.4145 18.1023 74.2942 18.0368C74.1738 17.9712 74.0801 17.8656 74.0294 17.7382C73.6191 16.6528 73.3544 15.5177 73.2425 14.3627C73.2384 14.3168 73.2247 14.2723 73.2024 14.232C73.1799 14.1918 73.1491 14.1568 73.1122 14.1293C73.0753 14.1018 73.0331 14.0825 72.988 14.0726C72.9429 14.0626 72.8967 14.0624 72.8516 14.0717L72.2448 14.2047C71.9165 14.2739 71.5999 14.3904 71.305 14.5508C70.9389 14.7593 70.6185 15.0393 70.3626 15.3741C70.1066 15.709 69.9206 16.0918 69.8155 16.5C69.7101 16.9081 69.6881 17.3332 69.7502 17.7502C69.8123 18.167 69.9575 18.5672 70.1772 18.9269C70.4894 19.4235 70.8549 19.8843 71.2675 20.3012C71.4224 20.4769 71.5112 20.7013 71.5182 20.9356V21.688H71.1922C68.0543 21.3846 66.5578 18.8993 66.37 16.4542V15.3984C66.373 15.0091 66.5264 14.636 66.7985 14.3576C67.4791 13.6614 68.0847 12.8957 68.6057 12.073C68.9929 11.4536 69.2465 10.7599 69.3502 10.0367C69.7511 7.18028 67.7684 4.63736 64.9037 4.14081C63.9563 3.97279 63.8034 4.09565 63.638 5.02606C63.4049 6.35269 62.9937 8.65738 62.3046 10.0894C62.0287 10.6762 61.6955 10.6762 61.2143 10.6762H59.6853C59.2068 10.6762 58.8732 10.6762 58.5976 10.0894C57.9059 8.65738 57.4947 6.35269 57.2642 5.02606C57.0988 4.09565 56.9184 3.96025 55.9985 4.14081C53.1112 4.63736 51.1286 7.18028 51.5322 10.0367C51.6323 10.7596 51.8833 11.4535 52.269 12.073C52.7891 12.8956 53.3938 13.6613 54.0736 14.3576C54.3465 14.6356 54.5011 15.0087 54.5047 15.3984V16.4667C54.3166 18.9118 52.8204 21.3971 49.6825 21.7005H49.3565V20.9482C49.3635 20.7139 49.452 20.4894 49.6072 20.3137C50.019 19.8963 50.3847 19.4355 50.6975 18.9394C50.9192 18.5796 51.0665 18.1787 51.1301 17.7606C51.1936 17.3426 51.1725 16.9161 51.0677 16.5065C50.9628 16.0969 50.7766 15.7126 50.52 15.3765C50.2635 15.0405 49.9419 14.7597 49.5747 14.5508C49.2815 14.3953 48.9688 14.2806 48.6446 14.2097L48.0381 14.0768C47.993 14.0674 47.9464 14.0677 47.9016 14.0776C47.8565 14.0875 47.8143 14.1069 47.7774 14.1343C47.7405 14.1618 47.7098 14.1968 47.6872 14.237C47.6647 14.2773 47.6512 14.3218 47.6471 14.3677C47.5361 15.5205 47.274 16.6537 46.8678 17.7382C46.8169 17.8656 46.7234 17.9712 46.6028 18.0368C46.4824 18.1023 46.343 18.1235 46.2086 18.0968H45.3063C44.9979 18.0968 44.8049 18.0968 44.6395 17.7382C44.2426 16.6483 43.9808 15.5138 43.8599 14.3602C43.8555 14.3144 43.8411 14.2701 43.8183 14.2302C43.7954 14.1902 43.7644 14.1556 43.7275 14.1284C43.6903 14.1012 43.6478 14.0821 43.603 14.0723C43.5579 14.0626 43.5114 14.0624 43.4666 14.0717L42.9151 14.1946C42.2623 14.3252 41.6658 14.6542 41.2069 15.1368C40.748 15.6193 40.449 16.2317 40.3512 16.8905C40.2615 17.6128 40.4247 18.3437 40.8121 18.9595C41.1222 19.4645 41.4974 19.9265 41.9276 20.3338C42.0093 20.4177 42.0734 20.517 42.1165 20.6259C42.1595 20.7348 42.1803 20.8512 42.1783 20.9683V21.6002H41.9627C34.2981 20.9833 38.91 11.7245 38.9777 11.594C39.2816 11.0538 39.5537 10.4961 39.7921 9.92383C39.8852 9.70717 39.954 9.48095 39.9977 9.24923C40.381 6.9596 37.6668 6.11195 35.5462 8.08809C31.8644 11.8799 30.0824 12.5144 24.5708 14.0918C23.0995 14.5231 24.2375 16.8103 24.3202 17.7281C24.4129 19.3858 24.5131 20.1306 20.1044 22.9946C20.0601 23.0254 20.027 23.0698 20.0099 23.121C19.9929 23.1722 19.9928 23.2276 20.0097 23.2788C20.0266 23.3301 20.0596 23.3745 20.1037 23.4056C20.1478 23.4366 20.2009 23.4525 20.2548 23.451Z" fill="#2A3143"/>
<path id="Vector_10" d="M75.0525 14.1417C75.2264 14.1408 75.3986 14.1055 75.5588 14.0378C75.7193 13.9702 75.8646 13.8716 75.987 13.7477C76.1091 13.6238 76.2057 13.477 76.271 13.3156C76.3366 13.1543 76.3697 12.9817 76.3683 12.8076C76.3633 12.5504 76.2828 12.3005 76.1366 12.0888C75.9908 11.8772 75.7855 11.7133 75.5468 11.6176C75.3084 11.522 75.0469 11.4987 74.795 11.5508C74.5435 11.6029 74.3127 11.728 74.1317 11.9106C73.9504 12.0932 73.8271 12.325 73.7771 12.5773C73.727 12.8295 73.7522 13.0909 73.8494 13.3289C73.9469 13.5669 74.1121 13.7709 74.3247 13.9155C74.5373 14.06 74.788 14.1387 75.0448 14.1417H75.0525Z" fill="#2A3143"/>
</g>
<g id="figure_2">
<path id="Vector_11" d="M60.4584 130.565H60.476C60.9232 130.558 61.3587 130.42 61.728 130.168C62.0976 129.915 62.3843 129.56 62.553 129.145C62.7216 128.731 62.765 128.276 62.6768 127.837C62.589 127.398 62.3737 126.995 62.0583 126.678C61.7429 126.361 61.3411 126.143 60.9033 126.053C60.4652 125.962 60.0101 126.003 59.5951 126.17C59.1798 126.336 58.8228 126.621 58.5686 126.99C58.3144 127.358 58.1742 127.793 58.1651 128.24C58.1633 128.543 58.221 128.844 58.3352 129.125C58.4494 129.406 58.6178 129.662 58.8307 129.878C59.0437 130.094 59.297 130.265 59.5764 130.383C59.8557 130.501 60.1553 130.563 60.4584 130.565Z" fill="#03A678"/>
</g>
</g>
<defs>
<clipPath id="clip0_54_99">
<rect width="123" height="126" fill="white" transform="translate(0 0.00585938)"/>
</clipPath>
</defs>
</svg>
