<?xml version="1.0" encoding="utf-8"?>
<!-- Generator: Adobe Illustrator 22.1.0, SVG Export Plug-In . SVG Version: 6.00 Build 0)  -->
<svg version="1.1" id="Слой_1" xmlns="http://www.w3.org/2000/svg" xmlns:xlink="http://www.w3.org/1999/xlink" x="0px" y="0px"
	 viewBox="0 0 384.1 384" style="enable-background:new 0 0 384.1 384;" xml:space="preserve">
<g>
	<path fill="#fff" d="M188.8,162.3c1,1,1.5,2.6,2.2,3.9c0.6-0.2,1.2-0.4,1.8-0.7c1-1.3,1.9-2.7,3-3.8C246.6,111,297.3,60.3,348,9.5
		c4-4,8.1-7.7,13.6-9.5c2.5,0,5,0,7.5,0c7.7,2.3,12.6,7.4,15,15c0,2.5,0,5,0,7.5c-1.8,5.6-5.7,9.8-9.8,13.9
		C323.5,87.1,272.7,138,221.9,188.8c-1,1-2,2.1-3.4,3.6c1.4,1.2,2.6,2.1,3.7,3.2c50.6,50.6,101.3,101.3,151.9,151.9
		c4.2,4.2,8.1,8.4,10,14.1c0,2.5,0,5,0,7.5c-2.4,7.6-7.4,12.6-15,15c-2.5,0-5,0-7.5,0c-5.6-1.8-9.8-5.7-13.9-9.8
		C297,323.4,246.1,272.6,195.3,221.8c-1-1-2.1-2-3.7-3.5c-1.2,1.5-2,2.8-3,3.8C137.9,272.8,87.1,323.5,36.4,374.2
		c-4.1,4.1-8.2,8-13.9,9.8c-2.5,0-5,0-7.5,0c-3.4-2.1-7.5-3.7-10.2-6.5c-7.4-7.7-6.2-18.6,2.2-27c51.7-51.7,103.4-103.4,155.1-155.1
		c1-1,2.5-1.7,4.6-3.1c-2.3-1.8-3.5-2.6-4.6-3.7C110.7,137.1,59.1,85.6,7.6,34c-1.3-1.3-2.7-2.7-3.8-4.1c-7.3-9.8-3.5-23.8,7.9-28.5
		C12.8,1,14,0.5,15.1,0c2.5,0,5,0,7.5,0c5.5,1.7,9.6,5.5,13.6,9.5"/>
</g>
</svg>
