<svg width="87" height="22" viewBox="0 0 87 22" fill="none" xmlns="http://www.w3.org/2000/svg">
<g clip-path="url(#clip0_58_329)">
<path d="M0.425588 17.4292C0.622013 17.3964 0.842991 17.376 1.06397 17.376C1.42408 17.376 1.71463 17.4578 1.91105 17.6256C2.0952 17.7811 2.21388 18.0103 2.21797 18.3499C2.21797 18.796 2.02973 19.1847 1.74327 19.418C1.47728 19.6308 1.13354 19.7249 0.63429 19.7249C0.356021 19.7249 0.114581 19.7044 0 19.684L0.425588 17.4292ZM0.564722 19.3157C0.622013 19.3239 0.695673 19.328 0.781609 19.328C1.0476 19.328 1.28495 19.2297 1.43636 19.0579C1.59595 18.8778 1.6778 18.6364 1.6778 18.3581C1.6778 17.9939 1.47319 17.777 1.06397 17.777C0.978034 17.777 0.904374 17.777 0.855268 17.7893L0.564722 19.3116V19.3157Z" fill="white"/>
<path d="M5.46622 17.3926L5.02836 19.7129H4.5332L4.96698 17.3926H5.46213H5.46622Z" fill="white"/>
<path d="M9.61576 19.6056C9.43571 19.6629 9.15744 19.7366 8.86689 19.7366C8.5477 19.7366 8.2858 19.6547 8.09347 19.4829C7.90932 19.3192 7.79883 19.0614 7.79883 18.7667C7.79883 18.3329 7.97479 17.9606 8.27352 17.7068C8.53542 17.49 8.89144 17.3672 9.29248 17.3672C9.5953 17.3672 9.82037 17.4245 9.90631 17.4695L9.75899 17.891C9.65259 17.8419 9.47253 17.7928 9.26793 17.7928C9.03876 17.7928 8.83006 17.8583 8.67865 17.981C8.47813 18.1406 8.34718 18.4148 8.34718 18.7299C8.34718 19.1186 8.57635 19.3151 8.94464 19.3151C9.05922 19.3151 9.14107 19.2987 9.19427 19.2741L9.28839 18.7831H8.93237L9.00603 18.3861H9.84902L9.61985 19.6015L9.61576 19.6056Z" fill="white"/>
<path d="M13.1477 17.3926L12.7139 19.7129H12.2188L12.6566 17.3926H13.1518H13.1477Z" fill="white"/>
<path d="M16.1547 17.8264H15.5449L15.6309 17.3926H17.3537L17.2718 17.8264H16.6539L16.302 19.7129H15.8068L16.1588 17.8264H16.1547Z" fill="white"/>
<path d="M19.8353 19.1113L19.5611 19.7129H19.0332L20.1586 17.3926H20.7928L21.067 19.7129H20.5473L20.4982 19.1113H19.8312H19.8353ZM20.4818 18.7348L20.4368 18.2356C20.4245 18.1087 20.4123 17.9246 20.4 17.7813H20.3918C20.3345 17.9205 20.269 18.1005 20.2077 18.2356L19.9785 18.7348H20.4818Z" fill="white"/>
<path d="M23.9687 17.3926H24.4639L24.112 19.2791H25.0041L24.9222 19.7129H23.5391L23.9728 17.3926H23.9687Z" fill="white"/>
<path d="M30.9036 19.1113L30.6295 19.7129H30.1016L31.2269 17.3926H31.8612L32.1354 19.7129H31.6157L31.5666 19.1113H30.8995H30.9036ZM31.5502 18.7348L31.5052 18.2356C31.4929 18.1087 31.4806 17.9246 31.4684 17.7813H31.4602C31.4029 17.9205 31.3374 18.1005 31.276 18.2356L31.0469 18.7348H31.5502Z" fill="white"/>
<path d="M36.4204 19.6066C36.2404 19.6639 35.9621 19.7375 35.6716 19.7375C35.3524 19.7375 35.0905 19.6557 34.8982 19.4838C34.7099 19.3201 34.6035 19.0623 34.6035 18.7677C34.6035 18.3339 34.7795 17.9615 35.0741 17.7078C35.336 17.4909 35.692 17.3682 36.0931 17.3682C36.3959 17.3682 36.621 17.4255 36.7069 17.4705L36.5596 17.892C36.4532 17.8429 36.2731 17.7938 36.0685 17.7938C35.8394 17.7938 35.6307 17.8592 35.4792 17.982C35.2787 18.1416 35.1478 18.4158 35.1478 18.7309C35.1478 19.1196 35.3769 19.316 35.7452 19.316C35.8598 19.316 35.9417 19.2997 35.9949 19.2751L36.0849 18.7841H35.7289L35.8025 18.3871H36.6455L36.4164 19.6025L36.4204 19.6066Z" fill="white"/>
<path d="M40.5333 18.7307H39.7066L39.6002 19.2914H40.5251L40.4473 19.7129H39.0273L39.4611 17.3926H40.832L40.7502 17.8141H39.8785L39.7844 18.3092H40.6069L40.5292 18.7266L40.5333 18.7307Z" fill="white"/>
<path d="M43.0176 19.713L43.4554 17.3928H44.0365L44.3434 18.2767C44.4376 18.5713 44.4989 18.8128 44.5562 19.0665H44.5685C44.5767 18.8291 44.6094 18.5754 44.6708 18.2317L44.8263 17.3887H45.2847L44.8509 19.7089H44.3394L44.0161 18.7841C43.9138 18.4731 43.8483 18.2603 43.7869 17.9779H43.7787C43.7501 18.203 43.6969 18.5345 43.6273 18.8987L43.48 19.713H43.0176Z" fill="white"/>
<path d="M49.258 19.6471C49.1352 19.7003 48.9265 19.7453 48.6482 19.7453C48.0385 19.7453 47.6252 19.3729 47.6211 18.7632C47.6211 18.2435 47.8543 17.8383 48.2022 17.6051C48.4395 17.4373 48.726 17.3555 49.0534 17.3555C49.303 17.3555 49.4912 17.4128 49.5567 17.4537L49.4257 17.8547C49.3562 17.822 49.2048 17.777 49.0043 17.777C48.8037 17.777 48.6155 17.8383 48.4764 17.957C48.2799 18.1166 48.1572 18.3785 48.1572 18.7018C48.1572 19.0701 48.3659 19.3156 48.7751 19.3156C48.9347 19.3156 49.0984 19.287 49.213 19.242L49.2539 19.6389L49.258 19.6471Z" fill="white"/>
<path d="M52.2 19.7127L52.38 18.7674L51.9258 17.3965H52.4537L52.601 17.9858C52.6419 18.1781 52.6665 18.2886 52.691 18.4073H52.6992C52.7688 18.2845 52.8383 18.1535 52.9366 17.9858L53.2844 17.4006H53.8737L52.8793 18.7633L52.6992 19.7208H52.2041L52.2 19.7127Z" fill="white"/>
<path d="M80.3625 11.2451H80.9845C81.6966 11.2451 82.0935 10.9423 82.1835 10.3367L82.2327 9.95199C82.3186 9.33816 82.0076 9.03125 81.2996 9.03125H79.7323L79.4336 11.1633C79.5932 11.196 79.7446 11.2165 79.8878 11.2288C80.0311 11.241 80.1906 11.2451 80.3666 11.2451H80.3625Z" fill="white"/>
<path d="M86.9992 10.7625C86.9992 4.8206 82.1827 0 76.2367 0C75.0827 0 73.9778 0.184149 72.9384 0.519708L71.7189 8.69591C71.7066 8.76957 71.6862 8.83914 71.6575 8.90461L71.1869 12.2889C71.1624 12.473 71.1419 12.6571 71.1215 12.8413C71.101 13.0254 71.0887 13.2014 71.0805 13.3733C71.0724 13.5452 71.0805 13.7048 71.0928 13.848C71.1092 13.9912 71.1378 14.114 71.1788 14.2204C71.2892 14.3472 71.4488 14.4454 71.6453 14.5068C71.8458 14.5723 72.0586 14.605 72.2918 14.605C72.6028 14.605 72.9016 14.5477 73.1921 14.4291C73.4827 14.3104 73.675 14.1426 73.7773 13.9216C73.8346 13.803 73.8796 13.6393 73.9164 13.4347C73.9533 13.2301 73.9983 12.9436 74.0556 12.5794L74.6776 8.07389C74.7103 7.87338 74.743 7.72197 74.784 7.61148C74.8249 7.50508 74.8822 7.42733 74.9599 7.37822C75.0336 7.32912 75.1318 7.30456 75.2546 7.29229C75.3732 7.2841 75.5287 7.28001 75.7211 7.28001C75.9462 7.28001 76.1221 7.28001 76.249 7.2841C76.3758 7.2841 76.47 7.31275 76.5232 7.36185C76.5804 7.41096 76.605 7.48871 76.605 7.59511C76.605 7.70151 76.5886 7.8611 76.5559 8.0698L75.9339 12.5753C75.9011 12.7922 75.8684 13.0173 75.8316 13.2546C75.7947 13.492 75.7456 13.7048 75.6802 13.8971C75.5615 14.2654 75.3896 14.5968 75.1645 14.9038C74.9395 15.2066 74.6735 15.4644 74.3625 15.6813C74.0515 15.8982 73.6995 16.0619 73.3149 16.1764C72.9261 16.291 72.5128 16.3483 72.0749 16.3401C71.146 16.3319 70.434 16.1191 69.9306 15.7058C69.4273 15.2884 69.1654 14.6869 69.1531 13.8971C69.1531 13.7048 69.1654 13.496 69.1818 13.2751C69.2022 13.05 69.2309 12.8249 69.2718 12.5917L69.8938 8.07389C69.9143 7.94294 69.9388 7.84064 69.9634 7.75061L70.9087 1.42817C67.6717 3.28194 65.4824 6.76439 65.4824 10.7625C65.4824 16.6348 70.1884 21.3981 76.0321 21.5127L77.1738 13.8684L77.8859 8.7532C77.7263 8.68772 77.6035 8.60997 77.5135 8.51994C77.4275 8.42992 77.3743 8.3317 77.358 8.23758L77.4316 7.6524C77.448 7.54191 77.4971 7.45188 77.583 7.38231C77.669 7.31275 77.7631 7.28001 77.8777 7.28001H81.6425C82.641 7.28001 83.3489 7.4928 83.7622 7.92248C84.1756 8.35216 84.3229 8.99873 84.1919 9.87037L84.106 10.5047C83.9873 11.3436 83.6599 11.9697 83.1239 12.3871C82.5878 12.8045 81.8266 13.0091 80.8363 13.0091H80.5867C80.2184 12.9927 79.9238 12.9845 79.6987 12.9763C79.4736 12.9763 79.3222 12.9641 79.2445 12.9477H79.2199V12.9354L77.9595 21.3735C83.087 20.551 87.0073 16.1191 87.0073 10.7625H86.9992Z" fill="white"/>
<path d="M76.5968 7.59493C76.5968 7.48853 76.5681 7.40669 76.5149 7.36168C76.4576 7.31257 76.3676 7.28802 76.2408 7.28392C76.1139 7.28392 75.9379 7.27983 75.7129 7.27983C75.5205 7.27983 75.365 7.27983 75.2464 7.29211C75.1277 7.30029 75.0295 7.32894 74.9517 7.37804C74.874 7.42715 74.8167 7.5049 74.7758 7.6113C74.7348 7.72179 74.698 7.8732 74.6694 8.07372L74.0473 12.5792C73.9901 12.9475 73.945 13.234 73.9082 13.4345C73.8714 13.6391 73.8264 13.7987 73.7691 13.9215C73.6668 14.1424 73.4703 14.3143 73.1839 14.4289C72.8974 14.5435 72.5987 14.6049 72.2836 14.6049C72.0504 14.6049 71.8376 14.5721 71.637 14.5066C71.4365 14.4412 71.281 14.347 71.1705 14.2202C71.1296 14.1179 71.101 13.991 71.0846 13.8478C71.0682 13.7046 71.0641 13.545 71.0723 13.3731C71.0805 13.2012 71.0928 13.0253 71.1132 12.8411C71.1337 12.657 71.1542 12.4728 71.1787 12.2887L71.6493 8.90443C71.678 8.83896 71.7025 8.76939 71.7107 8.69573L72.9302 0.519531C72.214 0.748694 71.5347 1.05561 70.8923 1.42391L69.947 7.74634C69.9224 7.83637 69.8979 7.93867 69.8774 8.06962L69.2554 12.5874C69.2145 12.8207 69.1858 13.0457 69.1654 13.2708C69.1449 13.4918 69.1367 13.7005 69.1367 13.8928C69.1531 14.6826 69.4109 15.2883 69.9142 15.7016C70.4176 16.1149 71.1296 16.3277 72.0585 16.3359C72.4964 16.344 72.9097 16.2908 73.2985 16.1722C73.6872 16.0576 74.0351 15.8898 74.3461 15.677C74.6571 15.4601 74.9272 15.2023 75.1481 14.8995C75.3691 14.5967 75.5451 14.2611 75.6638 13.8928C75.7292 13.7005 75.7783 13.4877 75.8152 13.2503C75.852 13.013 75.8847 12.7879 75.9175 12.571L76.5395 8.06553C76.5722 7.85683 76.5886 7.70133 76.5886 7.59084L76.5968 7.59493Z" fill="#0F1D40"/>
<path d="M83.7496 7.91786C83.3322 7.49228 82.6283 7.27539 81.6298 7.27539H77.865C77.7545 7.27539 77.6563 7.30813 77.5703 7.3777C77.4844 7.44726 77.4353 7.53729 77.4189 7.64778L77.3453 8.23296C77.3616 8.32708 77.4148 8.4212 77.5008 8.51532C77.5908 8.60535 77.7136 8.6831 77.8732 8.74858L77.1611 13.8638L76.0194 21.508C76.089 21.508 76.1585 21.5203 76.2322 21.5203C76.8174 21.5203 77.3862 21.463 77.9427 21.373L79.2031 12.9349V12.9472H79.2277C79.3054 12.9635 79.4609 12.9717 79.6819 12.9758C79.907 12.9799 80.2016 12.9922 80.5699 13.0086H80.8195C81.8099 13.0086 82.571 12.7998 83.1071 12.3865C83.6432 11.9732 83.9705 11.343 84.0892 10.5041L84.1751 9.86984C84.302 8.9982 84.1588 8.35164 83.7455 7.92196L83.7496 7.91786ZM82.2273 9.94759L82.1782 10.3323C82.0922 10.9379 81.6912 11.2407 80.9791 11.2407H80.3571C80.1812 11.2407 80.0216 11.2366 79.8783 11.2244C79.7351 11.2121 79.5837 11.1916 79.4241 11.1589L79.7228 9.02685H81.2901C82.0022 9.02685 82.3132 9.33376 82.2232 9.94759H82.2273Z" fill="#0F1D40"/>
<path d="M8.83558 14.3315L9.40849 10.4357C9.56399 9.41268 9.7727 8.10727 10.0387 6.74867H9.99777C9.47806 7.96814 8.88878 9.27355 8.37317 10.3089L6.43756 14.176H4.86616L4.5306 10.3498C4.44466 9.31038 4.37509 8.00906 4.3219 6.74867H4.29325C4.02726 7.99678 3.7449 9.41268 3.50755 10.4357L2.56635 14.3315H0.716675L3.08605 4.88672H5.79099L6.08563 8.47557C6.14292 9.35948 6.24113 10.4398 6.25341 11.4874H6.3107C6.67491 10.4357 7.17825 9.32675 7.58747 8.47557L9.33892 4.88672H12.0725L10.7957 14.3356H8.83149L8.83558 14.3315Z" fill="white"/>
<path d="M16.8524 14.332C16.8647 13.9228 16.9097 13.4645 16.9506 12.9734H16.9097C16.2795 14.1069 15.4079 14.4875 14.6099 14.4875C13.3781 14.4875 12.5352 13.534 12.5352 12.1059C12.5352 9.79376 14.0615 7.32617 17.4417 7.32617C18.256 7.32617 19.1359 7.48168 19.7129 7.66173L18.9845 11.2506C18.8167 12.1345 18.6898 13.4808 18.7185 14.3361H16.8524V14.332ZM17.4417 8.90576C17.2862 8.87711 17.0898 8.84847 16.8933 8.84847C15.5879 8.84847 14.6345 10.4485 14.6345 11.7212C14.6345 12.3923 14.9004 12.8547 15.4611 12.8547C16.0626 12.8547 16.8074 12.1672 17.1143 10.4853L17.4376 8.90167L17.4417 8.90576Z" fill="white"/>
<path d="M20.1995 14.3312L20.9689 10.2513C21.1653 9.21188 21.2471 8.06607 21.3208 7.47679H23.0722C23.0313 7.93921 22.9863 8.40163 22.9454 8.87632H22.9863C23.461 7.96376 24.2344 7.32129 25.1715 7.32129C25.2984 7.32129 25.4253 7.32129 25.548 7.33357L25.1552 9.29782C25.057 9.28554 24.9465 9.28554 24.8319 9.28554C23.5428 9.28554 22.9413 10.4354 22.6876 11.7818L22.2129 14.3353H20.1954L20.1995 14.3312Z" fill="white"/>
<path d="M25.3887 14.3311L27.267 4.37891H29.2722L28.1509 10.3371H28.1795C28.3882 10.0711 28.601 9.80515 28.7975 9.55144L30.5489 7.4767H33.0288L30.1152 10.2962L32.0221 14.3352H29.7796L28.5724 11.4052L27.8153 12.1213L27.3938 14.3352H25.3887V14.3311Z" fill="white"/>
<path d="M38.2137 13.9432C37.4157 14.3484 36.4213 14.4752 35.6643 14.4752C33.7 14.4752 32.6934 13.3662 32.6934 11.5861C32.6934 9.49913 34.2075 7.32617 36.6873 7.32617C38.0746 7.32617 39.069 8.0955 39.069 9.37227C39.069 11.1237 37.3748 11.7539 34.6249 11.6844C34.6249 11.8808 34.6944 12.1877 34.8336 12.3841C35.0996 12.736 35.562 12.9161 36.1513 12.9161C36.896 12.9161 37.5262 12.7483 38.0705 12.4823L38.2096 13.9392L38.2137 13.9432ZM36.4336 8.79936C35.4965 8.79936 34.9604 9.56869 34.8213 10.2153C36.3927 10.2275 37.1743 10.0066 37.1743 9.38864C37.1743 9.03671 36.896 8.79936 36.4295 8.79936H36.4336Z" fill="white"/>
<path d="M43.3875 5.55762L43.0233 7.47686H44.4801L44.1855 9.00324H42.7287L42.2662 11.3317C42.2089 11.61 42.1557 11.9619 42.1557 12.1992C42.1557 12.5348 42.2949 12.7762 42.7327 12.7762C42.9128 12.7762 43.1092 12.7762 43.2934 12.7476L43.056 14.3313C42.8023 14.4295 42.299 14.4868 41.8652 14.4868C40.658 14.4868 40.0851 13.8689 40.0851 13.0136C40.0851 12.6371 40.126 12.2565 40.2242 11.7368L40.7562 9.00324H39.8887L40.171 7.47686H41.0549L41.3373 6.03231L43.3957 5.55762H43.3875Z" fill="white"/>
<path d="M44.3809 14.331L45.6863 7.47656H47.7037L46.3983 14.331H44.3809Z" fill="white"/>
<path d="M48.0957 14.3314L48.9632 9.70313C49.131 8.83559 49.2456 8.07853 49.3275 7.47289H51.1198L50.9807 8.60642H51.0093C51.6559 7.71023 52.5071 7.31738 53.4196 7.31738C54.5409 7.31738 55.1711 8.00487 55.1711 9.18342C55.1711 9.49034 55.1138 10.01 55.0606 10.3456L54.3036 14.3273H52.2861L53.0022 10.5298C53.0432 10.2924 53.0718 10.01 53.0718 9.76042C53.0718 9.28573 52.904 8.94608 52.4007 8.94608C51.7418 8.94608 50.9725 9.7727 50.6902 11.2868L50.1132 14.3273H48.0957V14.3314Z" fill="white"/>
<path d="M56.4356 15.2847C56.8121 15.5098 57.6551 15.6612 58.228 15.6612C59.2388 15.6612 59.9958 15.2151 60.2741 13.8402L60.3846 13.2632H60.356C59.824 13.9506 59.206 14.2739 58.3917 14.2739C57.0331 14.2739 56.2065 13.1649 56.1901 11.835C56.1901 9.56381 57.8024 7.32129 60.7897 7.32129C61.7555 7.32129 62.6107 7.48907 63.3269 7.79598L62.2875 13.4432C62.0501 14.7036 61.6695 15.829 60.8429 16.4837C60.0981 17.073 59.1037 17.253 58.1912 17.253C57.2786 17.253 56.4234 17.0853 55.9609 16.8193L56.4234 15.2765L56.4356 15.2847ZM61.1457 8.9909C60.9902 8.92134 60.6956 8.86405 60.4173 8.86405C59.1979 8.86405 58.3303 10.2227 58.3303 11.5281C58.3303 12.2156 58.6372 12.7189 59.2552 12.7189C59.914 12.7189 60.5851 11.9905 60.7979 10.8283L61.1498 8.9909H61.1457Z" fill="white"/>
<path d="M47.5266 5.6925L47.015 4.63672L46.3726 5.61475L45.7383 6.57233H47.9481L47.5266 5.6925Z" fill="white"/>
</g>
<defs>
<clipPath id="clip0_58_329">
<rect width="87" height="21.5208" fill="white"/>
</clipPath>
</defs>
</svg>
