<svg width="125" height="14" fill="none" xmlns="http://www.w3.org/2000/svg"><path d="M.868 13V3.2h2.87l2.338 3.794L8.414 3.2h2.87V13H8.582V7.372l-2.506 3.836H6.02L3.528 7.4V13H.868zm20.848-1.288c-1.008.99-2.263 1.484-3.766 1.484-1.502 0-2.758-.49-3.766-1.47-.998-.99-1.498-2.198-1.498-3.626 0-1.419.504-2.623 1.512-3.612 1.018-.99 2.278-1.484 3.78-1.484 1.503 0 2.754.495 3.752 1.484 1.008.98 1.512 2.184 1.512 3.612 0 1.419-.508 2.623-1.526 3.612zm-3.738-.966c.738 0 1.335-.257 1.792-.77.467-.513.7-1.139.7-1.876 0-.728-.238-1.349-.714-1.862-.476-.523-1.078-.784-1.806-.784s-1.325.257-1.792.77c-.457.513-.686 1.139-.686 1.876 0 .728.234 1.353.7 1.876.476.513 1.078.77 1.806.77zM24.658 13V3.2h2.715v3.668h3.486V3.2h2.716V13H30.86V9.276h-3.486V13h-2.716zm13.044 0V5.58h-2.94V3.2h8.596v2.38h-2.94V13h-2.716zm6.064 0l4.172-9.87h2.618L54.728 13h-2.912l-.714-1.75h-3.78l-.7 1.75h-2.856zm4.354-3.864h2.198L49.226 6.35 48.12 9.136zM54.727 13l3.612-5.67-3.486-4.13h3.178l3.093 3.976V3.2h2.716v3.976L66.934 3.2h3.178l-3.486 4.13L70.238 13h-3.22l-2.24-3.696-.938 1.092V13h-2.716v-2.604l-.938-1.092L57.947 13h-3.22zm24.892.196c-1.418 0-2.618-.48-3.598-1.442-.97-.97-1.456-2.189-1.456-3.654 0-1.437.49-2.646 1.47-3.626.99-.98 2.222-1.47 3.696-1.47 1.746 0 3.118.69 4.116 2.072l-1.988 1.54c-.606-.756-1.325-1.134-2.156-1.134-.681 0-1.241.252-1.68.756-.438.504-.658 1.125-.658 1.862 0 .747.22 1.372.658 1.876.439.495.999.742 1.68.742.476 0 .882-.098 1.218-.294.336-.205.667-.504.994-.896l2.044 1.456c-.513.7-1.11 1.246-1.792 1.638-.681.383-1.53.574-2.548.574zM87.522 13V5.58h-2.94V3.2h8.596v2.38h-2.94V13h-2.716zm6.848 0V3.2h4.2c1.25 0 2.24.308 2.968.924.737.607 1.106 1.456 1.106 2.548 0 1.12-.387 1.988-1.162 2.604-.775.616-1.792.924-3.052.924h-1.344V13H94.37zm2.716-4.928h1.288c.485 0 .863-.117 1.134-.35.28-.233.42-.55.42-.952 0-.42-.14-.737-.42-.952-.27-.224-.653-.336-1.148-.336h-1.274v2.59zm15.398 3.64c-1.008.99-2.263 1.484-3.766 1.484-1.503 0-2.758-.49-3.766-1.47-.999-.99-1.498-2.198-1.498-3.626 0-1.419.504-2.623 1.512-3.612 1.017-.99 2.277-1.484 3.78-1.484 1.503 0 2.753.495 3.752 1.484 1.008.98 1.512 2.184 1.512 3.612 0 1.419-.509 2.623-1.526 3.612zm-3.738-.966c.737 0 1.335-.257 1.792-.77.467-.513.7-1.139.7-1.876 0-.728-.238-1.349-.714-1.862-.476-.523-1.078-.784-1.806-.784s-1.325.257-1.792.77c-.457.513-.686 1.139-.686 1.876 0 .728.233 1.353.7 1.876.476.513 1.078.77 1.806.77zM115.425 13V3.2h2.688v5.516l3.794-5.516h2.534V13h-2.688V7.484L117.959 13h-2.534zm4.592-10.43c-.672 0-1.228-.187-1.666-.56-.43-.373-.696-.9-.798-1.582l1.484-.266c.205.56.532.84.98.84.457 0 .788-.28.994-.84l1.484.266c-.103.681-.374 1.209-.812 1.582-.43.373-.985.56-1.666.56z" fill="#fff"/></svg>