<svg width="24" height="24" fill="none" xmlns="http://www.w3.org/2000/svg"><path fill-rule="evenodd" clip-rule="evenodd" d="M24 12c0-6.627-5.373-12-12-12S0 5.373 0 12s5.373 12 12 12 12-5.373 12-12zM6.584 14.237c.158.371.218.783.113 1.172a1.55 1.55 0 001.896 1.9l.04-.01c.386-.104.793-.047 1.164.105a5.952 5.952 0 007.03-1.959 5.912 5.912 0 00-.603-7.737 5.945 5.945 0 00-7.764-.502 5.91 5.91 0 00-1.875 7.03zm3.006 1.822a.555.555 0 00-.425-.058l-.15.04a.856.856 0 01-1.046-1.05L8 14.868a.563.563 0 00-.062-.44 4.724 4.724 0 01-.702-2.481 4.78 4.78 0 01.992-2.922 4.811 4.811 0 015.66-1.502 4.796 4.796 0 012.317 2.044 4.778 4.778 0 01-.803 5.786 4.805 4.805 0 01-5.813.705zm4.252-3.484a.993.993 0 01.298.121c.072.044.14.095.214.136.225.124.505.28.557.519a.675.675 0 01-.05.405 1.417 1.417 0 01-1.072.795 2.255 2.255 0 01-1.183-.186 4.92 4.92 0 01-1.017-.483 5.775 5.775 0 01-1.63-1.508 6.405 6.405 0 01-.376-.572 3.103 3.103 0 01-.36-.828 1.532 1.532 0 01-.047-.372 1.491 1.491 0 01.519-1.183.679.679 0 01.348-.164c.255-.039.494.127.645.337a2.458 2.458 0 01.35.768.907.907 0 01-.118.696 1.329 1.329 0 01-.188.232.23.23 0 00-.08.153c-.01.117.078.217.142.316a3.84 3.84 0 001.826 1.489.21.21 0 00.271-.06c.045-.055.09-.126.136-.2a5.78 5.78 0 01.059-.093.72.72 0 01.756-.318z" fill="#fff"/></svg>