<svg width="24" height="24" viewBox="0 0 24 24" fill="none" xmlns="http://www.w3.org/2000/svg">
<path fill-rule="evenodd" clip-rule="evenodd" d="M24 12C24 5.37258 18.6274 0 12 0V0C5.37258 0 0 5.37258 0 12V12C0 18.6274 5.37258 24 12 24V24C18.6274 24 24 18.6274 24 12V12ZM6.58448 14.2368C6.74235 14.608 6.80231 15.0195 6.69746 15.409V15.409C6.38746 16.5606 7.44032 17.616 8.59268 17.3088L8.63208 17.2982C9.01859 17.1952 9.42642 17.2519 9.7966 17.4035C10.9166 17.8621 12.1557 17.9701 13.3469 17.7045C14.7416 17.3936 15.9772 16.5915 16.8268 15.4452C17.6765 14.299 18.0832 12.8856 17.9724 11.4643C17.8616 10.0431 17.2407 8.70942 16.2236 7.70797C15.2066 6.70652 13.8615 6.1045 12.4354 6.01239C11.0092 5.92027 9.59757 6.34424 8.45951 7.20649C7.32144 8.06874 6.53327 9.31144 6.23965 10.7065C5.98938 11.8956 6.11268 13.1274 6.58448 14.2368ZM9.58965 16.0593V16.0593C9.46171 15.9836 9.30874 15.9625 9.16507 16.0006L9.0153 16.0404C8.37853 16.2096 7.79726 15.6263 7.96879 14.9901L8.00146 14.8689C8.04159 14.7201 8.01897 14.5613 7.93888 14.4296V14.4296C7.47927 13.6831 7.23637 12.824 7.23722 11.9479C7.23565 10.8914 7.58452 9.864 8.22946 9.02587C8.8744 8.18773 9.77918 7.58594 10.8028 7.31427C11.8265 7.0426 12.9114 7.11631 13.8887 7.52392C14.8659 7.93153 15.6805 8.65014 16.2056 9.56776C16.7306 10.4854 16.9366 11.5505 16.7914 12.5971C16.6462 13.6436 16.158 14.6129 15.4029 15.3539C14.6478 16.0948 13.6681 16.5657 12.6166 16.6933C11.5651 16.8209 10.5009 16.598 9.58965 16.0593ZM13.8422 12.5751C13.9476 12.5991 14.0482 12.6401 14.1399 12.6962C14.2119 12.7403 14.2802 12.7906 14.354 12.8316V12.8316L14.3541 12.8316L14.3541 12.8316C14.5786 12.9561 14.8593 13.1117 14.9113 13.3508C14.9367 13.488 14.919 13.6297 14.8605 13.7565C14.7609 13.9663 14.6111 14.1486 14.4243 14.2871C14.2375 14.4257 14.0195 14.5163 13.7893 14.551C13.3854 14.5968 12.9766 14.5325 12.6063 14.3651C12.2499 14.2434 11.9087 14.0811 11.5894 13.8816C10.9532 13.4889 10.3995 12.9768 9.95902 12.3737C9.82348 12.19 9.69788 11.9993 9.58277 11.8023C9.42322 11.5451 9.30218 11.266 9.22347 10.9739C9.19247 10.8523 9.17654 10.7274 9.17601 10.602C9.16823 10.3786 9.21079 10.1563 9.30054 9.95154C9.3903 9.74674 9.52497 9.56464 9.69463 9.41863C9.79236 9.33187 9.91317 9.27518 10.0425 9.25538V9.25538C10.2981 9.21625 10.5365 9.38239 10.6877 9.59215C10.7215 9.63909 10.7527 9.68786 10.7812 9.73823C10.8917 9.93356 10.9854 10.1426 11.0384 10.3606V10.3606C11.0957 10.5969 11.0499 10.8504 10.9196 11.0557C10.8662 11.1397 10.8033 11.2178 10.7319 11.2883C10.6865 11.3271 10.658 11.3818 10.6523 11.4411V11.4411C10.6411 11.5581 10.73 11.6578 10.7938 11.7565C11.23 12.4305 11.8683 12.9523 12.6199 13.246C12.6648 13.2705 12.7171 13.2778 12.767 13.2666C12.8169 13.2554 12.8611 13.2264 12.8911 13.1851C12.9357 13.131 12.9803 13.06 13.0274 12.9852C13.0464 12.9549 13.0658 12.924 13.0858 12.8934C13.2493 12.6425 13.5502 12.5087 13.8422 12.5751V12.5751Z" fill="#03A678"/>
</svg>
